<?xml version="1.0" encoding="utf-8"?>
<!-- Uploaded to: SVG Repo, www.svgrepo.com, Generator: SVG Repo Mixer Tools -->
<svg fill="#000000" height="800px" width="800px" version="1.1" id="Layer_1" xmlns="http://www.w3.org/2000/svg" xmlns:xlink="http://www.w3.org/1999/xlink" 
	 viewBox="0 0 256 217" xml:space="preserve">
<g>
	<path d="M241,83.7c0,0-45.4-58.7-111-71.3C46.5-3.8,12.7,50.3,7.6,87.2c-9,64.7,62.2,101.8,94.8,111.8c80.7,24.6,107.3-3.7,111-22
		c3.4-17.4-34.3-29.8-27.8-48.2c5.9-16.8,43.5,16.5,56.9,4.1C247,128.8,261.3,111.8,241,83.7z M59,106.2c-2,8.3-10.5,13.5-18.8,11.4
		c-8.3-2-13.5-10.5-11.4-18.8c2-8.3,10.5-13.5,18.8-11.4C55.9,89.4,61.1,97.9,59,106.2z M65.1,76.6c-8.3-2-13.5-10.5-11.4-18.8
		c2-8.3,10.5-13.5,18.8-11.4c8.3,2,13.5,10.5,11.4,18.8C81.9,73.5,73.4,78.7,65.1,76.6z M88.4,144.8c-2,8.3-10.5,13.5-18.8,11.4
		c-8.3-2-13.5-10.5-11.4-18.8c2-8.3,10.5-13.5,18.8-11.4C85.4,128,90.4,136.5,88.4,144.8z M113.2,69.8c-8.3-2.1-13.5-10.6-11.4-18.9
		c2-8.3,10.5-13.5,18.8-11.4c8.3,2,13.5,10.5,11.4,18.8C130,66.7,121.5,71.8,113.2,69.8z M133.1,167.1c-2,8.3-10.5,13.5-18.8,11.4
		c-8.3-2-13.5-10.5-11.4-18.8c2-8.3,10.5-13.5,18.8-11.4C130,150.3,135.1,158.7,133.1,167.1z"/>
</g>
</svg>