<?xml version="1.0" encoding="utf-8"?>
<!-- Uploaded to: SVG Repo, www.svgrepo.com, Generator: SVG Repo Mixer Tools -->
<svg fill="#ad8b73" height="800px" width="800px" version="1.2" baseProfile="tiny" id="Layer_1" xmlns="http://www.w3.org/2000/svg" xmlns:xlink="http://www.w3.org/1999/xlink"
	  viewBox="-871 1129 256 256" xml:space="preserve">
<path d="M-871,1185.5l199.2,199.7l56.8-56.7l-199.2-199.7L-871,1185.5z M-627,1328.5l-36.3,36.3l-187.3-187.7l36.4-36.2l25.4,25.4
	l-11.2,11.2l6,6l11.2-11.2l12,12l-17.2,17.2l6,6l17.2-17.2l12,12l-11.2,11.2l6,6l11.2-11.2l12,12l-17.2,17.2l6,6l17.2-17.2l12,12
	l-11.2,11.2l6,6l11.2-11.2l12,12l-17.2,17.2l6,6l17.2-17.2l12,12l-11.2,11.2l6,6l11.2-11.2l12,12l-17.2,17.2l6,6l17.2-17.2l12,12
	l-11.2,11.2l6,6l11.2-11.2L-627,1328.5z M-820.3,1165.2c3.1,3,3.2,8,0.2,11.2c-3,3.1-8,3.2-11.2,0.2c-3.1-3-3.2-8-0.2-11.2
	C-828.5,1162.3-823.5,1162.2-820.3,1165.2z"/>
</svg>