<?xml version="1.0" encoding="iso-8859-1"?>
<!-- Uploaded to: SVG Repo, www.svgrepo.com, Generator: SVG Repo Mixer Tools -->
<!DOCTYPE svg PUBLIC "-//W3C//DTD SVG 1.1//EN" "http://www.w3.org/Graphics/SVG/1.1/DTD/svg11.dtd">
<svg fill="#ad8b73" version="1.1" id="Capa_1" xmlns="http://www.w3.org/2000/svg" xmlns:xlink="http://www.w3.org/1999/xlink" 
	 width="800px" height="800px" viewBox="0 0 381.188 381.188"
	 xml:space="preserve">
<g>
	<g>
		<path d="M306.501,325.885c1.635-5.92,2.008-12.191,0.771-18.449c-3.375-16.851-16.908-29.299-32.93-31.073
			c-0.116-0.047-0.14-0.14-0.269-0.163c-17.761-2.569-31.072-29.356-39.854-39.936c-8.758-10.592-24.616-27.769-32.743-35.651
			c-0.49-0.49-1.284-1.553-2.335-3.094L224.188,27.85l-42.353,135.536c0,0-0.397,1.244-1.086,3.41
			c-27.698-48.203-72.439-130.48-72.439-130.48s55.373,165.838,57.299,171.595c-10.007,24.183-20.65,54.999-45.307,56.261
			c-0.082,0.023-0.07,0.116-0.146,0.163c-18.817,0.888-33.922,18.403-33.922,39.959c0,22.116,15.893,40.122,35.394,40.122
			c11.992,0,23.196-8.302,33.268-16.744c2.545-10.311,2.125-14.854,2.125-23.378c0-5.581-1.017-10.872-2.832-15.694l0,0
			c-2.989-11.957,25.433-70.693,30.874-74.266c27.19,16.698,61.977,59.518,53.534,81.471c0.035,0.012,0.128,0.012,0.175,0.023
			c-4.122,7.94-5.559,17.037-3.736,26.074c3.644,18.217,19.115,31.436,36.782,31.436c2.324,0,4.659-0.223,6.937-0.689
			c8.221-1.646,15.344-6.2,20.622-12.763c3.585,0.817,8.478,2.499,11.945,5.944c12.401,13.311,24.207,3.631,26.916,0
			C340.819,342.385,312.55,339.441,306.501,325.885z M121.629,332.318c-12.839,0-23.29-12.564-23.29-28.013
			s10.451-28.036,23.29-28.036c4.245,0,8.191,1.494,11.625,3.876c0.707,0.561,1.413,1.098,2.125,1.635
			c5.768,5.114,9.558,13.254,9.558,22.514C144.937,319.754,134.474,332.318,121.629,332.318z M180.721,201.734
			c-4.233,0-7.672-3.445-7.672-7.678s3.439-7.678,7.672-7.678c4.233,0,7.678,3.445,7.678,7.678S184.971,201.734,180.721,201.734z
			 M291.904,329.844c-3.597,5.768-9.132,9.645-15.53,10.93c-1.495,0.303-3.036,0.455-4.555,0.455
			c-11.934,0-22.396-9.143-24.918-21.707c-1.402-7.03-0.164-14.153,3.502-20.027c3.609-5.756,9.12-9.645,15.531-10.918
			c1.506-0.303,3.036-0.467,4.554-0.467c11.935,0,22.409,9.143,24.931,21.708C296.82,316.847,295.56,323.958,291.904,329.844z"/>
		<path d="M134.579,133.96l-3.264-10.848c-8.787-0.607-17.323-1.179-25.444-1.897c-9.733-0.899-18.917-1.781-27.36-2.861
			c-8.431-1.121-16.144-2.306-22.91-3.643c-6.755-1.39-12.611-2.814-17.335-4.292c-4.723-1.536-8.372-2.942-10.789-4.069
			c-2.412-1.174-3.679-1.851-3.679-1.851s1.133,0.87,3.346,2.4c2.26,1.483,5.657,3.614,10.247,5.739
			c9.172,4.332,23.004,8.91,39.936,12.535c8.466,1.839,17.685,3.55,27.47,4.986C114.267,131.566,124.25,132.909,134.579,133.96z"/>
		<path d="M170.451,137.142c4.881,0.321,9.768,0.642,14.696,0.969l3.649-11.707c-6.493-0.35-12.961-0.695-19.384-1.027
			c-1.915-0.123-3.801-0.228-5.705-0.339L170.451,137.142z"/>
		<path d="M380.662,160.327c-0.315-0.637-0.946-1.46-1.833-2.499c-1.822-2.02-5.021-4.607-9.61-6.89
			c-4.555-2.306-10.358-4.531-17.177-6.469c-6.785-1.985-14.551-3.801-23.051-5.319c-8.524-1.582-17.773-3.001-27.594-4.186
			c-9.797-1.208-20.166-2.359-30.874-3.229c-10.708-0.87-21.777-1.874-33.034-2.499c-7.637-0.467-15.355-0.935-23.098-1.401
			l-1.576,11.899c8.045,0.397,16.079,0.776,24.02,1.173c11.233,0.619,22.292,0.911,32.953,1.472
			c10.685,0.572,20.995,0.992,30.758,1.588c9.75,0.648,18.963,1.267,27.44,2.067c16.933,1.629,30.944,3.889,40.263,7.117
			c4.624,1.641,8.058,3.48,10.112,5.155c1.005,0.847,1.752,1.553,2.149,2.114c0.443,0.525,0.677,0.817,0.677,0.817
			S381.024,160.922,380.662,160.327z"/>
		<path d="M44.601,100.745c6.854,2.306,14.719,4.484,23.413,6.334c8.682,1.88,18.14,3.562,28.194,4.893
			c10.048,1.36,20.662,2.604,31.662,3.457c0.374,0.023,0.765,0.046,1.15,0.082l-3.252-10.836
			c-9.914-0.502-19.501-0.969-28.604-1.658c-9.96-0.794-19.349-1.641-27.967-2.75c-8.611-1.162-16.464-2.44-23.365-3.958
			c-6.878-1.542-12.804-3.193-17.592-4.904c-4.782-1.699-8.401-3.392-10.842-4.612c-2.406-1.343-3.684-2.061-3.684-2.061
			s1.15,0.911,3.311,2.61c2.271,1.564,5.611,3.97,10.264,6.276C31.914,95.945,37.723,98.485,44.601,100.745z"/>
		<path d="M194.856,106.939c-10.941-0.315-21.86-0.625-32.62-0.935c-3.118-0.123-6.218-0.228-9.301-0.327l6.609,11.875
			c0.742,0.035,1.483,0.082,2.224,0.105c9.698,0.397,19.53,0.794,29.368,1.197L194.856,106.939z"/>
		<path d="M297.626,113.368c-10.077-1.244-20.691-2.318-31.691-3.071s-22.35-1.565-33.887-1.985
			c-4.975-0.193-9.973-0.38-14.994-0.561l-1.564,11.823c5.418,0.146,10.802,0.274,16.149,0.42
			c11.49,0.409,22.806,0.502,33.712,0.946c10.93,0.456,21.463,0.812,31.435,1.419c9.949,0.671,19.36,1.413,27.99,2.417
			c8.618,1.051,16.453,2.318,23.296,3.889c6.843,1.6,12.705,3.416,17.282,5.488c4.577,2.067,7.964,4.233,9.995,6.025
			c1.098,0.823,1.764,1.629,2.277,2.113c0.502,0.502,0.759,0.765,0.759,0.765s-0.222-0.286-0.642-0.87
			c-0.433-0.561-0.993-1.483-1.95-2.487c-1.799-2.107-4.835-4.974-9.318-7.689c-8.922-5.558-23.19-10.591-40.602-14.106
			C317.174,116.117,307.669,114.564,297.626,113.368z"/>
		<path d="M148.054,94.141c11.531,0.467,23.249,0.946,34.956,1.413c5.091,0.128,10.188,0.263,15.256,0.391l3.678-11.776
			c-6.177-0.239-12.372-0.467-18.566-0.707c-11.683-0.333-23.366-0.671-34.868-0.993c-2.908-0.105-5.798-0.216-8.682-0.298
			l6.626,11.888C146.991,94.094,147.528,94.118,148.054,94.141z"/>
		<path d="M54.311,83.562c8.682,1.875,18.14,3.55,28.194,4.887c10.048,1.366,20.674,2.61,31.662,3.456
			c2.61,0.205,5.29,0.397,7.929,0.602l-3.322-11.064c-1.302-0.047-2.633-0.082-3.923-0.158c-10.907-0.549-21.428-1.04-31.389-1.792
			c-9.96-0.8-19.36-1.646-27.978-2.762c-8.624-1.156-16.476-2.44-23.366-3.958c-6.878-1.542-12.804-3.188-17.592-4.887
			c-4.782-1.699-8.401-3.398-10.854-4.618C1.279,61.93,0,61.212,0,61.212s1.15,0.911,3.311,2.604
			c2.26,1.582,5.611,3.97,10.258,6.282c4.63,2.341,10.439,4.863,17.305,7.135C37.734,79.533,45.617,81.705,54.311,83.562z"/>
		<path d="M218.502,96.488c11.292,0.379,22.396,0.49,33.128,0.917c10.918,0.444,21.451,0.812,31.423,1.425
			c9.961,0.671,19.361,1.413,27.979,2.417c8.618,1.051,16.465,2.318,23.308,3.883c6.831,1.605,12.705,3.421,17.282,5.488
			s7.94,4.233,9.995,6.025c1.086,0.829,1.775,1.629,2.289,2.119c0.49,0.502,0.747,0.765,0.747,0.765s-0.21-0.286-0.63-0.876
			c-0.433-0.561-1.005-1.495-1.962-2.487c-1.798-2.102-4.823-4.975-9.318-7.684c-8.909-5.576-23.19-10.597-40.59-14.112
			c-8.723-1.792-18.204-3.345-28.271-4.554c-10.077-1.244-20.68-2.324-31.691-3.077c-10.451-0.724-21.217-1.483-32.17-1.897
			L218.502,96.488z"/>
	</g>
</g>
</svg>